<?xml version="1.0" encoding="utf-8"?>
<!-- Generator: Adobe Illustrator 24.3.0, SVG Export Plug-In . SVG Version: 6.00 Build 0)  -->
<svg version="1.1" xmlns="http://www.w3.org/2000/svg" xmlns:xlink="http://www.w3.org/1999/xlink" x="0px" y="0px"
	 viewBox="0 0 487.44 169.64" style="enable-background:new 0 0 487.44 169.64;" xml:space="preserve">
<style type="text/css">
	.st0{display:none;}
	.st1{display:inline;}
	.st2{display:inline;fill:#800000;}
	.st3{fill:#800000;}
	.st4{fill:#737373;}
	.st5{fill:#FFFFFF;}
</style>
<g id="DOES_NOT_PRINT" class="st0">
	<rect y="0" class="st1" width="487.03" height="169.64"/>
</g>
<g id="Logo">
	<g>
		<g>
			<path class="st5" d="M56.66,103.1c-0.62-0.27-1.3-0.44-1.88-0.83c0.41,1.37,0.7,2.56,1.46,4
				C56.68,107.1,57.43,105.11,56.66,103.1 M54.77,80.15l0.05,0.05c-0.01,1.85-5.22,4.51-7.45,5.71c3.45,1.19,6.71-2.01,6.32-1.23
				c-0.47,0.91-4.68,4.54-6.51,6.48c1.43,0.4,2.74-0.76,3.78-1.64c1.13-0.96,3.02-3.38,2.74-2.18c-3.06,3.78-5.47,11.62-3.98,12.12
				c0.85-1.78,4.37-10.84,4.59-10.8c0.23,0.04-0.28,2.39-0.35,3.95c-0.17,3.42-0.2,5.03,0.54,8.4c0.38-0.52,0.75-0.51,1.35-0.47
				c0.07-0.33,0.05-0.24-0.33-0.74c-0.98-1.3,0.15-3.06-0.32-4.14c-0.39-0.9-0.61-0.18-0.79-1.12c0.28-0.25,1-0.33,1.3-0.37
				c0.32-3.51,1.49-5.29,1.05-3.08c-0.22,1.12-0.57,2.98-0.4,3.03c0.16,0.05,0.18,0.05,0.32,0.13c0.06,0.03,5.89-9.56,2.66-2.91
				c-0.42,0.87-2.15,3.22-2.15,3.22c0.45,0.46,0.88,1.01,0.94,1.34c0.01,0.09,7.81-10.26,2.5-1.92c-0.33,0.51-1.92,2.22-2.33,2.72
				c-0.05,0.07,0.15,1.94,0.15,1.94c0.81-0.56,1.97-1.69,2.51-2.42c-0.07-1.06,0.18-0.92,0.23-1.95c0.25-0.16,0.57,0.28,0.96,0.63
				c0.18,0.17,5.35-8.83,2.11-2.08c-0.52,1.08-1.67,2.37-1.72,2.47c0.22,0.23,0.54,0.97,0.91,1.84c0.02,0.03,6.91-9.95,2.72-2.41
				c-0.33,0.59-2.41,3.09-2.38,3.16c0.51,1.25,0.96,2.46,0.95,2.46c-0.13-0.97-0.32-2.89,1.69-4.47c0.26,1.73,0.73,1.8,1.33,2.33
				c0.26,0.23,0.76,1.22,0.82,0.38c0.17-2.46-0.63-2.4-1.22-3.45c-0.14-0.25-0.12-0.81,0-0.78c4.97,0.15,4.8,4.8,5.63,4.8
				c-0.38-1.19-0.48-2.35-0.03-3.31c-1.33-0.94-1-2.56-0.74-3.26c-1.5-1.55-0.64-4.84,0.08-5.53c-0.96-1.4,0.22-2.35-0.03-3.21
				c-0.4-3.04-3.11-2.13-3.72-5.02c-0.42,0.51-1.21,2.27-0.84,2.85c0.42,0.67,1.33,0.72,1.38,1.21c0.02,0.21,0.09,0.79-0.06,0.91
				c-0.51,0.09-0.86-0.38-1.39-0.59c-1.05-0.42-3.6,1.33-3.75-0.21c-0.1-0.97,0.33-0.27,0.28-1.17c-0.04-0.93-0.51-0.27-0.52-1.47
				c0-0.87,1.05-1.15,1.13-1.5c0.19-0.87,1.76,1.28,2.69-1c-0.54,0.08-1.62-0.3-1.52-0.83c0.27-1.42,0.3-4.86-2.92-4.12
				c-1.15,0.27-4.37,1.96-4.82,0.12c-1.16,2.05,1.13,1.69,1.83,1.65c-0.27,0.19-0.62,0.5-1.47,0.32c-1.81,1.19-8.43,5.4-10.35,6.46
				C50.76,82.64,54.71,80.15,54.77,80.15 M60.99,97.16c-0.9,0.9-1.21,0.92-1.16,1.31c0.2,0.55,0.6,0.93,1.02,1.4
				c0.53,0.43,0.73,0.82,0.34-0.44C60.94,98.59,61,97.98,60.99,97.16 M75.44,77.54c-0.16-0.36-0.43-0.7-0.82-0.88
				c-1.61-0.77-4.69,0.89-4.66-1.52c0,0-1.1,0.82-0.6,1.68C70.51,78.78,73.71,76.35,75.44,77.54 M51.22,53.43
				c-2.69,0-2.75,4.13,0,4.13C53.93,57.55,53.93,53.43,51.22,53.43 M51.22,61.67c-2.82,0-2.82,4.13,0,4.13
				C53.95,65.79,53.93,61.67,51.22,61.67 M54.05,56.89h2.4v-2.36h-2.4V56.89z M54.05,65.11h2.4v-2.36h-2.4V65.11z M60.59,62.53
				c-1.08,0.66-0.89,1.39-0.53,1.84c0.2-0.14,0.89-0.61,1.17-0.89C61.07,63.38,60.7,62.83,60.59,62.53 M63.08,58.88
				c-0.01-0.23-0.01-0.44-0.03-0.56c0.03-0.21-0.37-0.7-0.48-0.71c-0.13,0-0.4,0.24-0.55,0.48c-0.08,0.14-0.09,0.51,0.08,0.71
				C62.43,59.2,62.58,59.21,63.08,58.88 M63.09,60.05c0-0.09,0-0.17,0-0.27c0-0.1,0-0.38,0-0.67c-0.34,0.21-0.47,0.37-0.82,0.16
				c-0.57,0.46,0.3,0.74,0.48,0.89C62.88,60.09,62.99,60.07,63.09,60.05 M67.47,53.43c0.19-0.14,0.64-0.65,0.94-0.94
				c-0.17-0.1-0.46-0.31-0.58-0.59C67.31,52.31,67.21,52.6,67.47,53.43 M71.3,53.93c-0.32,0.25-0.6,0.47-0.75,0.6
				c0.11,0.22,0.85,0.75,1.26,0.56c0.4-0.19,0.6-0.59,0.22-0.8C71.77,54.14,71.53,54.03,71.3,53.93 M71.61,53.29
				c0.19-0.15,0.37-0.29,0.43-0.34c-0.28-0.26-0.76-0.52-0.98-0.55c-0.21-0.02-0.64,0.16-0.48,0.38c0.16,0.21,0.33,0.48,0.68,0.53
				C71.39,53.32,71.5,53.31,71.61,53.29 M72.74,63.95c0.02-0.28,0.03-0.57,0.01-0.72c0.03-0.21-0.63-0.62-0.74-0.62
				c-0.14,0-0.14,0.07-0.3,0.33c-0.08,0.13-0.01,0.54,0.05,0.6C72.12,63.86,72.41,63.96,72.74,63.95 M71.86,64.01
				c-0.57,0.48,0.07,0.92,0.25,1.07c0.19-0.1,0.45-0.14,0.64-0.21c-0.03-0.08-0.06-0.15-0.06-0.24c0-0.09,0.01-0.28,0.03-0.48
				C72.34,64.19,72.16,64.22,71.86,64.01 M70.59,64.76l-0.35,0.39l-0.34,0.34c-0.26-0.27-0.45-0.32-0.49-0.53l-0.01-1.71l-0.53-0.28
				c-0.25,0.21-0.44,0.12-0.22-0.07l0.81-0.76l0.2-0.03l0.52,0.76l0.01,1.62C70.38,64.69,70.2,64.69,70.59,64.76 M70.42,59.52
				c-0.27-0.76,0.22-1.46,0.46-1.67c0.19-0.16,0.64-0.54,0.93-0.73c0.28,0.17,0.5,0.29,0.64,0.36c-0.05,0.14-0.11,0.41-0.41,0.43
				c-0.45,0.01-0.8-0.11-1.04,0.16c-0.24,0.26-0.05,1,0.25,1.28c0.23,0.22,0.85,0.49,0.96,0.24c0.15-0.33,0.37-0.16,0.16,0.13
				c-0.15,0.19-0.41,0.59-0.55,0.86C71.33,60.55,70.69,60.3,70.42,59.52 M71.08,64.85c0-0.42,0.21-0.75,0.51-1.06
				c-0.02-0.02-0.03-0.03-0.05-0.04c-0.08-0.07-0.22-0.81-0.12-0.96c0.14-0.2,0.79-0.83,1.23-0.87c0.3-0.03,0.75,0.62,1.01,0.91
				c-0.07,0.08,0.09,1.88,0.09,2.05c0.09,0.15,0.4,0.25,0.5,0.11c0.12-0.16,0.24,0.01,0.12,0.13c-0.12,0.11-0.57,0.47-0.71,0.64
				c-0.2-0.16-0.54-0.33-0.76-0.6c-0.45,0.08-0.91,0.41-1.27,0.67C71.23,65.65,71.09,65.25,71.08,64.85 M74.71,60.29l-0.36,0.39
				l-0.46,0.39c-0.26-0.27-0.44-0.34-0.49-0.55l-0.02-1.76l-0.42-0.26c-0.24,0.22-0.44,0.12-0.22-0.07l0.81-0.75l0.19-0.03
				l0.35,0.52l-0.02,1.87C74.31,60.24,74.31,60.22,74.71,60.29 M74.27,54.53c-0.98-0.1-0.72-0.41-0.56-0.4
				C74.63,54.19,74.42,54.55,74.27,54.53 M74.29,53.95c-0.98,0.04-0.72-0.41-0.56-0.4C74.55,53.6,74.44,53.94,74.29,53.95
				 M73.5,56.05l0.42,0.43v0.45l-0.31,0.28h-0.26l-0.26-0.26l-0.01-0.52L73.5,56.05z M73.06,52.49c-0.1,0.12-0.48,0.43-0.92,0.78
				c0.07,0.01,0.13,0.02,0.2,0.07c0.71,0.41,0.95,1,0.26,1.55c-0.38,0.31-1,0.65-1.67,0.67c-0.44,0.01-1.23-0.36-1.38-0.52
				c0.36-0.34,0.75-0.71,1.03-0.95c-0.44-0.34-0.85-0.79-0.51-1.31c0.25-0.39,1.03-1.02,1.72-0.99
				C72.47,51.82,72.78,52.29,73.06,52.49 M69.37,54.76c-0.19,0.1-0.58,0.5-0.89,0.5c-0.93-0.04-2.1-0.71-1.93-1.96
				c0.18-1.3,1.21-1.8,1.65-1.81c0.5,0.04,0.62,0.47,0.91,0.73c-0.43,0.35-1.13,1.05-1.55,1.47c0.1,0.22,0.58,1.04,1.61,0.78
				C69.62,54.36,69.78,54.56,69.37,54.76 M66.29,52.69c-0.17,0.17-0.56,0.41-0.71,0.53c-0.2-0.12-0.44-0.47-0.57-0.57
				c-0.06,0.05-0.17,0.11-0.28,0.18c0,0.23,0.01,2.35-0.01,2.59c-0.3,0.02-0.56,0.04-0.77-0.01c-0.02-0.31,0.02-2,0.01-2.27
				c-0.02-0.34-0.32-0.36-0.71-0.47c0.22-0.27,0.64-0.57,0.82-0.72c0.34,0.26,0.55,0.26,0.71,0.46c0.22-0.12,0.6-0.35,0.77-0.49
				c0.16,0.19,0.46,0.49,0.57,0.63C66.27,52.39,66.46,52.52,66.29,52.69 M63.05,57.07c0.3-0.03,0.55,0.57,0.81,0.86
				c-0.08,0.08-0.08,1.87-0.08,2.04c0.06,0.1,0.27,0.22,0.36,0.14c0.14-0.14,0.24,0,0.11,0.12c-0.11,0.11-0.7,0.62-0.85,0.78
				c-0.2-0.16-0.28-0.38-0.31-0.7c-0.36,0.08-0.69,0.28-0.91,0.61c-0.4-0.18-0.71-0.53-0.72-0.92c-0.01-0.41,0.27-0.64,0.56-0.91
				c-0.05-0.04-0.1-0.07-0.15-0.13c-0.08-0.07-0.19-0.72-0.11-0.9C61.96,57.63,62.6,57.11,63.05,57.07 M62.46,56.12
				c-0.13-0.19-0.16-0.36-0.44-0.29c-0.68,0.2-1.43,0.4-1.98,0.08c-0.58-0.36-1.08-0.47-1.09-1.79c-0.01-0.8,0.7-1.44,1.16-1.71
				c0.53-0.3,1.43-0.11,1.84,0.01c0.2,0.06,0.35,0.04,0.36-0.22c0-0.14,0.22-0.11,0.22,0c0,0.11-0.01,1.74-0.01,1.87
				c0,0.13-0.27,0.14-0.26,0.02c0-0.18-0.06-0.54-0.12-0.82c-0.09-0.43-1.21-1.22-2.02-0.16c-0.02,0.05-0.35,0.61-0.3,1.04
				c0.03,0.32,0.08,0.77,0.29,1.07c0.63,0.9,1.54,0.6,2.01-0.14c0.17-0.27,0.14-0.59,0.16-0.78c0-0.11,0.25-0.13,0.25,0
				c0,0.13-0.01,1.21-0.01,1.32c0,0.16,0.12,0.28,0.18,0.36C62.86,56.23,62.68,56.42,62.46,56.12 M59.04,57.85
				c0.32-0.47,1.06-0.92,1.56-1.1c0.16,0.19,0.35,0.48,0.59,0.79c-0.24,0.19-0.48,0.43-0.62,0.59c-0.11-0.12-0.71-1.03-1.14-0.39
				c-0.23,0.34-0.48,1.32,0.31,1.93c0.38,0.29,0.79,0.38,1.31,0.3c-0.27,0.35-0.33,0.45-0.48,0.75c-0.76,0.14-1.07-0.11-1.44-0.42
				C58.33,59.66,58.58,58.55,59.04,57.85 M59.36,63.9c0.19-1.31,1.46-1.84,1.84-2.1c0.07,0.38,0.51,1.04,0.79,1.31
				c-0.43,0.35-1.42,1.18-1.79,1.46c0.21,0.38,0.99,0.65,1.25,0.36c0.19-0.19,0.43-0.13,0.22,0.13c-0.29,0.33-0.58,0.8-0.72,1.09
				C60.38,65.9,59.19,65.15,59.36,63.9 M62.38,62.81c0.36-0.28,0.55-0.5,0.8-0.73c0.21,0.34,0.31,0.66,0.5,0.8
				c0.26-0.22,0.68-0.49,0.88-0.7c0.19,0.09,0.52,0.29,0.54,0.96c0.01,0.67,0.11,1.71,0.11,1.95c0,0.12,0.03,0.09,0.23,0.04
				c0.18-0.05,0.25,0.04,0.11,0.16c-0.14,0.12-0.8,0.57-0.98,0.77c-0.23-0.43-0.27-0.74-0.18-1.17c0.08-0.35,0.01-1.3,0.01-1.52
				c0-0.22-0.33-0.29-0.47-0.41c-0.19,0.14-0.22,0.17-0.39,0.33c0,0.29-0.04,2.3,0.01,2.56c-0.45,0.02-0.41-0.01-0.67-0.01
				c-0.02-0.39-0.01-1.93-0.03-2.27C62.83,63.24,62.55,63,62.38,62.81 M65.87,60.46c-0.19,0.17-0.62-0.1-0.77-0.36
				c-0.24-0.41-0.17-1.38-0.13-2.17c0.03,0-0.14-0.19-0.3-0.23c-0.21-0.05-0.24-0.13,0.08-0.26c0.39-0.16,1.01-1.1,1.09-1.32
				c0.08-0.21,0.19-0.01,0.08,0.19c-0.24,0.47-0.14,1.01-0.1,1.18c0.03,0.07,0.77-0.03,0.93-0.03c0.1,0.01,0.09,0.32,0,0.31
				c-0.13,0-1.1,0.12-1.1,0.12c-0.07,0.03,0.08,1.57,0.18,1.68c0.01,0.02,0.32,0.28,0.44,0.17c0.15-0.14,0.29,0.01,0.12,0.15
				C66.27,59.97,66.1,60.28,65.87,60.46 M66.28,62.75c0.3-0.22,0.81-1.16,0.88-1.38c0.06-0.22,0.19-0.14,0.17,0.09
				c-0.03,0.33-0.18,1.08-0.12,1.23c0.03,0.07,0.5,0.07,0.66,0.07c0.1,0,0.11,0.31,0.01,0.31c-0.13,0-0.66,0.08-0.66,0.08
				c-0.07,0.03-0.04,1.14,0.07,1.25c0.21,0.2,0.38,0.34,0.67,0.04c0.14-0.14,0.29-0.01,0.12,0.14c-0.09,0.08-0.49,0.57-0.58,0.81
				c-0.09,0.24-0.62,0.06-0.79-0.19c-0.27-0.4-0.15-1.21-0.17-2C66.58,63.21,66.03,62.95,66.28,62.75 M69.89,61.29
				c-0.25,0.23-0.44,0.45-0.65,0.69c-0.19-0.12-0.47-0.36-0.68-0.55c0.35-0.16,0.55-0.38,0.67-0.62
				C69.37,61.12,69.65,61.24,69.89,61.29 M68.27,57.39c0.57,0.18,1.41,0.05,1.67,0.8c0.28,0.79-0.23,1.81-0.89,1.86
				c-0.55,0.05-1.05-0.14-1.36-0.11c-0.14,0.01-0.25,0.06-0.27,0.21c-0.02,0.17-0.24,0.24-0.28,0.02c-0.05-0.21-0.11-1.12-0.11-1.38
				c0-0.26,0.24-0.29,0.29,0c0.05,0.28,0.13,0.48,0.35,0.73c0.17,0.19,1.25,0.46,1.65,0.14c0.32-0.26,0.25-0.82-0.09-1.04
				c-0.33-0.22-1.68-0.53-1.91-0.92c-0.39-0.66,0.31-1.2,0.61-1.38c0.48-0.27,1.04-0.18,1.23-0.18c0.19,0,0.44,0.06,0.45-0.14
				c0.01-0.2,0.17-0.18,0.19,0.03c0.06,0.59,0.12,0.23,0.1,0.86c0,0.29-0.1,0.29-0.22,0.07c-0.08-0.14-0.91-0.84-1.57-0.41
				C67.54,56.92,67.75,57.25,68.27,57.39 M70.37,67.62c2.95,0.2,5.46,1.56,5.46,1.56V50.17c0,0-4.33-3.03-11.38-0.32
				c-2.07,0.8-7.11,0.13-7.11,0.13v19.43C61.76,69.71,67.52,67.43,70.37,67.62 M77.31,73.87c0,0.25-0.32,0.61-0.32,0.61l1.17-0.59
				c-0.24-0.16-0.9-0.53-1.17-0.61C76.98,73.28,77.31,73.53,77.31,73.87 M79.06,73.85c-1.08,0.21-1.89,1.39-3.12,0.89
				c-0.16-0.11-0.49-0.19-0.45-0.44c0.22,0.13,0.57,0.21,0.81,0.24c0,0-0.66-0.55-0.08-1.22c-0.74,0.47-1,0.34-1,0.09
				c0-0.11,0.97-0.82,1.89-0.47c0.66,0.25,1.23,0.76,1.96,0.86V73.85z M76.03,71.62c-0.61,0.07-1.35,0.43-1.53,1.07
				c-0.37,0.37-0.35-0.62-1.11-0.19c-0.32,0.43,0.52,1.39,0.32,1.45c-0.82,0.25-0.72-1.23-1.18-1.27c-0.67,0.24-2.37,1.79-0.7,3.02
				c-0.05-0.83,1.52-1.73,2.04,0.1c1.58-0.12,2.11,0.84,2.3,1.38c2.32,0.41,1.65,1.95,1.59,1.95c-0.22-0.33-1.22-1.87-2.85-0.81
				c-0.38,0.25-1.03,0.49-1.36,0.16c0.03,0.52,0.68,0.98,1.13,0.86c1.45-0.4,1.82,0.95,0.71,1.32c0.24,0.37,0.7,0.35,1.12,0.09
				c0.62-0.38,0.7-0.72,0.92-0.95c0.4,1.89-2,2.08-2.77,2.19c0.12,0.4,0.38,0.49,0.86,0.63c-2.53,0.09-3.03,2.46-2.88,3.83
				c0.57,0.04,1.45-1.2,1.37-0.49c-1.79,1.9-2.4,4.45-1.45,6.07c0.45-0.18,0.59-0.68,0.75-1.08c0.07-0.05,0.99,0.36-0.48,2.12
				c-0.1,0.46-0.62,1.84,0.51,2.17c0.43-0.51,0.37-0.95,0.46-1.48c0.33-0.13,0.55,0.93,0.42,1.26c-1.48,0.61-1.29,5.14,0.42,7.58
				c-0.79-1.77-0.69-4.04,0-5.86c0.53-1.4,1.69-4.55,1.72-4.51c0.66,0.81,1.49,4.28,1.49,5.72c0.92-0.8,1.1-1.68,1.86-2.28
				c0.36,1.26,0.5,2.09,0.79,3.21c0.37-1.09,1.34-2.32-0.05-5.84c0.29-0.26,0.81,1.22,0.98,1.15c0.13-0.05,0.32-0.79-0.16-2.17
				c-0.97-0.91-1.19-2.25-1.04-2.35c0.12-0.08,0.56,1.38,1.08,1.46c0.1-1.14,0.38-2.3,0.3-3.19c-0.02-0.23-0.4-1.41-1.48-2.38
				c-0.62-0.56-0.86-1.74-0.81-1.97c0.6,0.56,0.47,0.96,0.98,1.19c0.21-0.48,0.07-2.25-0.55-3.02c-0.36-0.59-0.19-0.51,0.24-0.15
				c0.56,0.66,0.29,0.61,0.77,0.88c1.05-2.48,0.1-2.96,0.17-3.14c0.07-0.16,0.81,1.16,1.45,0.65c-1.04-0.55-1.01-1.38-1.12-2.27
				c-0.09-0.71-0.55-0.97-0.37-1.15c1.03,0.78,1.32-0.08,1.35-0.26c-0.2,0.11-1.12,0.23-1.23-1.19c-0.04-0.56-0.91-0.81-0.91-0.81
				c0.53-0.1,2.23-0.2,1.83-1.88c-0.21,0.4-0.71,1.03-1.77,0.78c0,0,0.68-0.18,0.56-0.92C79.06,73.25,77.73,71.38,76.03,71.62
				 M90.47,54.1c0.27,0.23,1.02,0.58,1.4,0.71c0-0.32,0-0.64-0.03-0.79c0.02-0.22-0.74-0.62-0.86-0.62
				c-0.14-0.01-0.33,0.22-0.51,0.47C90.39,54.01,90.4,54.05,90.47,54.1 M91.26,56.14c0.25-0.12,0.43-0.17,0.62-0.18
				c-0.01-0.1-0.02-0.2-0.02-0.32c0-0.09,0.01-0.36,0.01-0.65c-0.34-0.11-0.76-0.29-1.13-0.49c0.05,0.03,0.11,0.06,0.17,0.09
				C90.51,55.32,91.05,55.98,91.26,56.14 M91.28,60.15c0.17,0.43,0.89,0.99,1.09,1.09c0.3-0.36,0.47-1.03,0.4-1.59
				c-0.05-0.43-0.61-0.91-1.09-1.08C91.06,58.93,91.06,59.57,91.28,60.15 M81.61,64.22c-0.36,0.68-0.06,0.82,0.14,0.99
				c0.25-0.13,0.48-0.24,0.66-0.37c0-0.12,0.01-0.35,0.01-0.61C82,64.27,81.87,64.36,81.61,64.22 M82.41,64.03
				c0-0.31,0-0.61-0.03-0.75c0.02-0.22-0.45-0.55-0.58-0.56c-0.14,0-0.24,0.05-0.42,0.31c-0.08,0.14-0.06,0.68,0.01,0.74
				C81.8,64.11,82.06,64.07,82.41,64.03 M83.01,65.78c-0.26-0.2-0.48-0.25-0.57-0.56c-0.67,0.26-0.93,0.65-1.33,0.93
				c-0.24-0.22-0.43-0.61-0.44-1.02c-0.01-0.4,0.39-0.94,0.61-1.15c-0.03-0.02-0.04-0.03-0.07-0.06c-0.09-0.07-0.21-0.66-0.09-0.82
				c0.15-0.21,0.75-1.03,1.22-1.07c0.32-0.03,0.58,0.37,0.85,0.67c-0.07,0.08-0.04,1.51-0.05,1.69c0.3,0.32,0.42,0.4,0.6,0.28
				c0.18-0.12,0.25,0,0.13,0.12C83.74,64.91,83.17,65.61,83.01,65.78 M84.64,62.93c0.05,0.01-0.66-0.27-0.36-0.42
				c0.54-0.26,1.06-0.82,1.15-1.05c0.08-0.21,0.29-0.12,0.18,0.1c-0.1,0.22-0.18,0.75-0.12,0.92c0.02,0.07,0.43,0.11,0.61,0.11
				c0.1,0,0.1,0.32-0.01,0.32c-0.13,0-0.64,0.01-0.64,0.01c-0.07,0.04-0.02,1.8,0.02,1.95c0.06,0.15,0.47,0.25,0.63,0.1
				c0.15-0.14,0.31,0,0.13,0.14c-0.1,0.08-0.42,0.58-0.67,0.68c-0.26,0.1-0.65-0.07-0.82-0.32C84.47,65.05,84.63,63.73,84.64,62.93
				 M85.83,60.52c-0.31-0.17-0.73-0.58-0.95-0.91c-0.41,0.52-0.51,0.97-1.25,1.16c0.43-0.36,0.83-1.16,0.8-1.93
				c-0.03-0.69-0.41-1.03-0.74-1.15c-0.28,0.14-0.53,0.32-0.68,0.39c-0.16,0.06-0.2-0.18-0.09-0.24c0.36-0.18,1.16-0.79,1.27-0.9
				c0.34,0.06,0.76,0.35,0.82,0.63c0.26-0.16,0.71-0.65,0.85-0.76c0.16,0.27,0.61,0.6,1.12,0.79c-0.47,0.79-1.5,0.32-1.65,0.12
				c-0.17,0.28-0.21,0.44-0.04,0.8c0.21,0.47,1.06,0.92,1.5,1.04C86.66,59.69,86.05,60.38,85.83,60.52 M86.54,63.34
				c0.31-0.34,0.64-0.56,0.83-0.76c0.33,0.24,0.43,0.39,0.61,0.67c-0.01,0.44-0.1,1.36-0.07,1.69c0.02,0.31,1.27,0.53,1.33,0.06
				c0.06-0.46,0.02-1.06,0-1.33c-0.02-0.21-0.52-0.31-0.77-0.28c0.34-0.35,0.62-0.61,0.84-0.81c0.3,0.23,0.6,0.55,0.78,0.82
				c-0.01,0.47-0.09,1.57-0.02,1.86c0.08,0.3,0.05,0.32,0.28,0.47c-0.23,0.22-0.4,0.31-0.56,0.48c-0.24-0.07-0.64-0.42-0.61-0.74
				c-0.29,0.2-1.13,0.55-1.44,0.63c-0.31-0.32-0.54-0.4-0.56-0.78c-0.02-0.4,0.09-1.42-0.04-1.67
				C87.01,63.41,86.8,63.36,86.54,63.34 M90.52,60.05c0.03-1,0.69-1.85,1.77-2.23c0.85,0.28,1.2,1.14,1.23,1.72
				c0.02,0.47-0.29,1.09-0.5,1.47c-0.33,0.22-0.67,0.54-0.99,0.85C91,61.85,90.5,60.64,90.52,60.05 M90.66,63.91
				c0.26-0.15,0.86-0.7,1.07-0.84c0.35,0.27,0.58,0.54,0.75,0.74c0.23-0.12,0.6-0.39,0.77-0.53c0.31,0.22,0.65,0.5,0.78,0.65
				c0.16-0.15,0.36-0.03,0.18,0.15c-0.18,0.17-0.58,0.52-0.73,0.64c-0.22-0.12-0.61-0.56-0.74-0.66c-0.06,0.06-0.19,0.12-0.3,0.18
				c-0.01,0.24,0,2.25-0.02,2.49c-0.33,0.02-0.6,0.04-0.82-0.01c-0.02-0.32,0.01-2.06,0-2.34C91.58,64.04,91.02,63.92,90.66,63.91
				 M94.68,60.35c-0.26-0.02-0.51-0.06-0.65-0.1c-0.22-0.07-0.13-0.31,0.05-0.31c0.17,0,0.45,0.06,0.58,0.1
				C94.79,60.09,94.85,60.37,94.68,60.35 M94.7,59.75c-0.25-0.01-0.51-0.06-0.65-0.1c-0.22-0.06-0.13-0.31,0.05-0.31
				c0.18,0,0.46,0.05,0.59,0.1C94.82,59.5,94.87,59.76,94.7,59.75 M93.11,55.92l-0.77,0.84c-0.23-0.16-0.36-0.33-0.43-0.62
				c-0.59,0.12-0.99,0.47-1.27,0.68c-0.25-0.22-0.61-0.81-0.62-1.22c-0.01-0.4,0.31-1,0.53-1.21c0.02,0.01,0.04,0.02,0.06,0.03
				c-0.13-0.08-0.25-0.15-0.34-0.23c-0.08-0.07-0.11-0.27,0-0.43c0.15-0.2,0.63-0.8,1.1-0.88c0.25-0.03,0.67,0.03,1.25,0.55
				c-0.07,0.09-0.07,1.78-0.07,1.96C92.77,55.65,93.11,55.92,93.11,55.92 M88,58.97c-0.12,0.63,0.42,1.14,0.83,1.36
				c0.33,0.17,0.9,0.08,1.04,0.05c0.14-0.02,0.1-0.06,0.2-0.16c0.1-0.1,0.23-0.01,0.14,0.09c-0.09,0.1-0.93,0.9-1.16,1.06
				c-0.21,0.05-0.68,0.04-0.96-0.32c-0.5-0.62-0.86-0.85-0.7-1.98c0.11-0.77,1.39-1.43,1.68-1.6c0.12,0.12,0.7,0.73,0.95,0.93
				c-0.1,0.13-0.42,0.27-0.73,0.27c-0.32,0-0.53-0.26-0.74-0.5C88.41,58.32,88.09,58.51,88,58.97 M89.66,52.8
				c-0.14,0-1.59,0.17-1.59,0.17c-0.08,0.04,0.07,1.82,0.13,1.97c0.04,0.15,0.18,0.37,0.35,0.23c0.15-0.15,0.32,0.1,0.14,0.24
				c-0.1,0.08-0.42,0.71-0.57,0.81c-0.23,0.15-0.56-0.33-0.67-0.62c-0.17-0.49-0.29-1.71-0.29-2.52c0.05,0.01-0.68-0.29-0.35-0.42
				c0.64-0.27,1.25-1.12,1.32-1.33c0.08-0.22,0.28-0.13,0.18,0.09c-0.21,0.44-0.19,0.76-0.1,1.02c0.03,0.07,1.25,0.04,1.44,0.04
				C89.76,52.49,89.76,52.8,89.66,52.8 M86.29,55.01l-0.6,0.77h-0.56c-0.28-0.27-0.46-0.49-0.51-0.71l-0.03-1.86l-0.69-0.4
				c-0.13,0.17-0.38,0.17-0.29,0.03L84.57,52l0.21-0.02l0.61,0.61l-0.01,1.92C85.68,54.86,85.86,54.94,86.29,55.01 M85.52,51.22
				l-0.34,0.29H84.9l-0.28-0.28l-0.01-0.54l0.45-0.38l0.45,0.44V51.22z M83.59,51.18c-0.33,0.1-0.57,0.43-0.65,0.77
				c-0.07,0.35-1.19,3.62-1.33,3.84c-0.27-1.02-1.4-3.46-1.76-3.97c-0.31-0.46-0.61-0.37-0.9-0.38c-0.28,0-0.17-0.26,0.06-0.24
				c0.32,0.04,2.1,0.2,2.61,0.27c0.18,0.04,0.19,0.2-0.05,0.27c-0.12,0.03-0.41,0.17-0.41,0.31c0,0.19,0.65,1.62,0.83,1.89
				c0.15-0.37,0.76-1.93,0.64-2.27c-0.13-0.34-0.18-0.4-0.44-0.42c-0.25-0.03-0.25-0.18,0.05-0.23c0.3-0.05,1.15-0.12,1.41-0.09
				C83.9,50.95,83.93,51.09,83.59,51.18 M79.55,57.07c0.56-0.31,1.82-0.5,2.25-0.37c0.22,0.06,0.44,0,0.44-0.1
				c0-0.15,0.2-0.11,0.2,0c0,0.11,0,1.49-0.02,1.62c0,0.13-0.2,0.12-0.2,0c0-0.2,0-0.26-0.17-0.53c-0.5-0.76-1.9-0.82-2.59,0.09
				c-0.24,0.31-0.32,0.84-0.06,0.93c0.26,0.09,1.25,0.01,1.57-0.05c0.32-0.06,1.12-0.19,1.21-0.25c0.09-0.05,0.21-0.13,0.21,0.03
				c0,0.16,0,0.69-0.01,0.85c0,0.16-0.13,0.08-0.21,0.02c-0.09-0.05-0.84-0.13-1.17-0.15c-0.54-0.05-1.36-0.22-1.63-0.13
				c-0.27,0.08-0.06,0.5,0.18,0.81c0.68,0.92,1.95,0.95,2.46,0.2c0.19-0.27,0.19-0.33,0.19-0.52c0-0.12,0.21-0.14,0.21,0
				c0,0.13-0.01,1.27-0.01,1.38c0,0.11-0.21,0.14-0.21-0.01c0.01-0.24-0.14-0.23-0.42-0.14c-0.74,0.2-1.72,0.26-2.31-0.07
				c-0.62-0.36-1.16-0.47-1.18-1.83C78.28,58.01,79.05,57.36,79.55,57.07 M78.53,61.26c0.18,0.02,0.74,0.03,0.93,0.03
				c-0.02,0.41-0.02,3.28,0,3.57c0.03,0.3,0.28,0.39,0.54,0.27c0.13-0.05,0.24,0.04,0.08,0.18c-0.28,0.21-0.63,0.71-0.78,0.9
				c-0.32-0.22-0.68-0.5-0.65-0.76C78.69,64.97,78.55,61.64,78.53,61.26 M82.7,67.62c1.95,0,9.64,2.11,13.34,1.86V50.15
				c0,0-5.45,0.77-10.17-0.97c-3.85-1.42-9.15,1.06-9.15,1.06c0,0.66,0,18.96,0,18.96S78.67,67.62,82.7,67.62 M96.73,61.78v3.68
				c0,0,2.06-0.02,4.34-1.48c0.68-0.44,1.69-0.26,2.2,0.14h0c0,0-0.31-2.41-2.35-2.11C97.16,62.55,96.73,61.78,96.73,61.78
				 M103.26,56.45c0.03,0.24,0.06,0.4,0.07,0.51C103.32,56.85,103.3,56.69,103.26,56.45c0,0-0.11-2.17-2.44-2.17
				c-0.76,0-1.68,0.92-4.03-0.1v3.68c0.95,0.28,3.57-1.21,4.61-1.67C102.15,55.87,103.21,56.08,103.26,56.45 M100.7,95.1
				c-0.15-5.82-3.73-12.28-2.75-11.08c2.43,3.01,3.21,9.52,4.88,15.13c0,0,1.07,0.55,0.84-6.57c-0.05-1.44-0.64-3.36-1.35-4.7
				c-1.41-2.64-4.28-7.1-4.19-7.13c0.69-0.56,2.37,3.28,3.83,4.79c0.95,0.98,3.58,1.94,3.76,1.81c-2.11-4.09-7.22-7.94-6.69-8.42
				c3.76,3.53,4.95,3.7,5.11,3.51l-3.39-3.29c-0.96-1.28-2.22-2.27-2.05-2.23c1.51,0.33-0.79-1.26-2.57-1.74
				c-0.32-0.09-0.83-0.11-0.85-0.27c-0.03-0.27,0.42-0.16,0.79-0.27c0.24-0.07,0.49-0.26,0.5-0.61c-0.68,0.15-1.37-0.01-1.96-0.27
				c-1.2-0.56-3.35-1.2-4.34-0.81c-0.58,0.23-0.69,0.2-1.31,0.68c-0.27-0.11-1.03-0.6-2.1,0.69c-0.33,0.4-0.73,0.87-0.75,1.21
				c-0.05,0.86,0.02,0.04,0.23,0.86c0.09,0.34-0.3,0.97-1.88,1.5c-0.61,0.2-0.46,0.81-0.46,0.81c0.3-0.15,0.78-0.49,1.52-0.14
				c1.44,0.68,1.72-0.39,2.62-1.15c0,0-0.25,0.96,0,1.01c1.12,0.23,0.75,1.07,0.6,1.2c-1.41,1.26-0.82,1.74-1.33,2.51
				c-0.47,0.73-1.21,1.01-2.3,0.98c-1.51-0.05,1.97-2.32-1.36-3.27c0.52,0.87,0.73,1.57-0.43,2.25c-0.73,0.43-0.36,2.59-2.24,1.59
				c0,0-0.15,1.6-0.37,1.67c2.55,2.24,1.13,3.46,1.26,6.65c0.8,2.03-0.08,3-0.28,3.12c0.13,1.38,0.26,2.13,1.12,3.25
				c0.62,0.81-0.06,2.07,0.58,2.94c0.59-2.08,1.21-1.21,1.38-4.1c0.23-0.48,1.2-1.34,1.76-1.39c-0.01,1.74,0.63,3.32,0.5,4.06
				c0,0,1.47-0.27,1.92-0.11c0.36,0.12,0.64,0.6,0.65,0.89c-0.5,0.31-0.5,0.19-1.25,0.74c-1.32,0.96-1.92,2.92-1.92,2.92
				c0,0,3.1-2.47,3.32-2.92c0.18-0.35,0.34-0.9,0.51-1.46c0.02-0.06-1.6-1-2.04-1.87c-1.39-2.69,2.15,1.6,2.23,1.22
				c0.21-0.93,0.85-1.81,0.85-1.81c-0.23-0.26-0.78-0.43-1.62-1.92c-1.93-3.4,2.24,1.45,2.24,1.45c1.11-0.63,1.11,0.21,1.25,1.11
				c0.01,0.08,1.88,1.46,1.97,1.55c0.53-0.49,0.91-1.15,1.12-1.61c0.03-0.06-3.37-3.07-3.95-4.07c-4.68-8.02,3.79,3.56,4.19,3.24
				c0.22-0.63,0.3-1.49,0.27-2.66c0-0.03-1.59-1.13-2.61-2.81c-3.93-6.49,2.58,1.94,2.58,1.88c-0.08-1.39-1.22-7.42-0.43-5.61
				c0.4,0.93,1.67,4.78,1.44,8.7C98.2,96,100.02,95.28,100.7,95.1 M93.33,101.5c0,0-0.62-0.47-0.66-0.38
				c-0.1,0.27-0.24,0.58-0.42,0.95C92.09,102.39,92.58,102.16,93.33,101.5 M93.08,99.08c-0.08,0.53-0.08,0.94-0.24,1.54
				c-0.02,0.06,0.59,0.3,0.87,0.54c0.39-0.36,0.74-0.55,1.15-1.06c-0.09-0.06-1.72-1.47-1.72-1.41
				C93.12,98.88,93.11,98.85,93.08,99.08 M98.12,102.43c0.72-0.61,1.14-1.65,2.07-1.96c-0.7-0.64-1.39,0.64-1.75,0.19
				c0.65-1.02,1.06-1.8,1.13-3.07c0.04-0.69,0.83-1.33,1.02-1.71c-0.77,0.11-2.82,1.32-3.24,2.02c-1.38,1.82-1.31,3.53-7.08,6.08
				c-0.29,0,1.07-0.99,1.45-2.13c0.18-0.53,0.94-3.01,0.42-4.2c-1.19,1.21-0.95,1.61-1.28,2.5c-0.86,2.36-1.33,2.58-3.48,4.04
				c-0.29,0.19-1.94,2.74-4.08,2.87c0.22-0.06,0.09-0.59,0.82-1.06c2.4-1.57,1.48-4.96,4.61-5.53c-1.56-0.55-2.63,0.96-2.91,0.81
				c1.26-1.75,0.15-3.23,0.34-4.65c-0.42,0.22-0.84,0.74-0.88,1.16c-0.24,2.54-1.42,2.98-1.54,4.08c0.25,1.81-1.2,3.22-2.27,4.5
				c-0.21-1.06,0.07-1.99,1.4-2.87c0.73-0.48-0.07-1.93-0.07-1.93c-0.3,1.58-1.19,2.07-1.74,2.15c-0.48,0.07,1.7-2.21,1.45-4.3
				c-0.11-0.93-0.38-0.52-0.53-1.56c-1.88,2.09-0.5,3.38-2.43,5.79c-0.91,1.14-1.26,3.15-1.38,3.2c0.02-2.99,0.12-2.12,1.45-4.54
				c1.09-2-0.06-3.86-0.21-5.06c-2.39,1.65-2.19,4.82-2.26,4.14c-0.06-0.68-0.36-1.87-0.04-2.95c0.53-1.79-0.6-4.52-0.6-4.52
				c-3.35,5.25-0.54,11.39-0.75,11.31c-1.45-2.27-2.51-2.37-2.83-4.11c-0.17-0.95-1.9-6.15-5.07-6.24c1.6,1.38,1.21,1.57,1.32,3.82
				c-1.02,5.64,6.88,6.23,6.35,9.16c-1.08-1.73-2.73-2.47-5.22-3.82c-1.1-0.87-2.35-1.26-2.41-2.63c0.13-0.99,0.19-0.79,0.02-2.08
				c-0.12-0.92-1.03-0.36-1.7-2.29c-1.43,1.29-0.9,2.75-0.79,3.58c0.03,0.24,0.2,1.11-0.02,1.62c-0.51-0.35-0.86-1.07-1.43-1.79
				c-1.02-1.31-1.01-2.9-1.52-4c-0.24-0.51-0.58-1.21-0.78-1.22l-0.04,0.02c-0.25,2.05-0.13,3.84,0.8,5.38c0,0-0.26,0.44-0.46,0.55
				c-0.88-0.23-2.14-0.98-2.65-2.42c-1.1,0.92-0.32,2.12-0.37,2.1c-2.47-1.27,0.03-6.17-3.49-6.03c0.87,0.95,0.32,2.16,0.24,3.29
				c-0.02,1.84,2.32,3.27,2.32,3.27c-2.61-0.88-3.14,0.34-3.11,0.34c0,0,3.84,1.67,9.91,2.3c0.78,0.08,1.89,1,1.71,1
				c-0.78-0.06-2.32-1.06-4.54,0.91c1.31,0.03,2.21,2.16,4.33,0.94c5.49-1.55,7.52,1.17,8.42,1.87c-0.19,0.34-4.22-2.53-7.41-0.63
				c-1.7,1.01-4.43,0.1-6.57-1.5c0.86,2.2,4.54,4.69,5.75,4.69c1.49,0,3.39-1.94,5.56-1.84c3.46,0.17,3.94,3.26,3.56,3.02
				c0,0-2.72-4.5-6.22,0.31c1.64-0.75,3.82-0.56,5.74,0.35c0.26,0.12-0.47,0.93-0.98,1.51c-0.34,0.38-1.8,2.54-3.37,0.41
				c-0.24-0.32-0.99-2.3-5.93-1.87c1.86,0.84,3.92,3.05,4.94,4.05c2.59,2.56,6.5-3.11,6.65-2.48c0,1.27,0.65,1.89,1,2.58
				c0.87,1.73-1.1,1.44-2.17,1c0,0,2.04,3.18,3.75,1.41c1.89-1.96-2.48-3.44-1.09-5c0.78-0.88,3.53,1.96,4.77,1.97
				c3.36,0.37,3.18-2.81,4.95-2.72c-1.67-1.69-3.44-0.77-3.81-0.34c-1.12,1.3-2.41,0.43-3.31-0.27c-0.49-0.65-1.31-0.75-2.05-0.55
				c-0.35,0.03,0.7-1.23,2.07-0.97c3.09,0.6,6.18-0.51,6.94-0.93c1.24-0.7,1.94-1.88,3.33-3.21c-0.43,0.08-3,1.51-3.83,1.93
				c-2.47,1.24-4.02-0.37-4.3-0.36c-0.48,0.01-0.35-0.36,0.39-0.6c2.54-0.57,4.29-2.8,6.71-3.69
				C92.47,103.85,95.86,104.66,98.12,102.43 M97.15,106.77c1.01-1.45,1.59-3.01,1.93-4.69c-0.59,0.77-1.45,1.44-2.32,1.79
				C96.15,105.81,96.44,107.8,97.15,106.77 M106.34,90.81c-2.52,27.12-25.22,31.73-30.06,32.61c-0.26,0.05-27.33-3.39-30.06-32.61
				c0-0.01,0-43.12,0-43.12s25.86-3.34,60.12,0L106.34,90.81z M107.92,91.06l0-44.9c-36.07-3.48-63.3,0-63.3,0s0,44.9,0,44.91
				c2.87,30.44,31.38,34.02,31.65,33.97C81.36,124.12,105.27,119.31,107.92,91.06"/>
		</g>
		<path class="st5" d="M442.39,50.28l0.03-0.05l0-0.06c-0.05-0.97-0.08-2.23-0.08-3.53v-0.26l-0.25,0.06
			c-0.33,0.07-1.98,0.07-3.58,0.07h-4.94c-1.01,0-1.91-0.02-3.1-0.08l-0.05,0l-0.05,0.02c-0.22,0.11-0.26,0.42-0.27,0.52
			c-0.02,0.23,0.05,0.42,0.19,0.51l0.52,0.09c1.36,0.16,1.43,0.31,1.43,3.18v9.67c0,2.84-0.07,2.99-1.43,3.15l-0.74,0.09L430,63.71
			c-0.15,0.15-0.18,0.4-0.15,0.58c0.03,0.2,0.12,0.35,0.25,0.42l0.05,0.02l0.05,0c1.26-0.05,2.16-0.08,3.35-0.08
			c1.08,0,2.01,0.03,3.57,0.08l0.05,0l0.05-0.02c0.18-0.09,0.25-0.33,0.26-0.52c0.01-0.23-0.05-0.42-0.19-0.5l-1.01-0.11
			c-1.37-0.12-1.45-0.29-1.45-3.15v-3.73c0-0.52,0-0.52,0.68-0.52h1.83c0.94,0,1.65,0.02,2,0.12c0.38,0.12,0.58,0.37,0.72,0.87
			l0.28,1.11l0.05,0.04c0.26,0.23,0.84,0.22,1-0.04l0.04-0.05v-0.06c0-0.28-0.02-0.64-0.04-1.04c-0.03-0.49-0.06-1.04-0.06-1.57
			c0-0.54,0.03-1.12,0.06-1.63c0.02-0.42,0.04-0.79,0.04-1.09v-0.06l-0.04-0.05c-0.13-0.19-0.4-0.21-0.51-0.21
			c-0.22,0-0.42,0.07-0.52,0.19l-0.28,1.16c-0.15,0.65-0.33,0.72-0.54,0.79c-0.28,0.09-1.11,0.15-2.22,0.15h-1.83
			c-0.68,0-0.68,0-0.68-0.52v-5.67c0-0.87,0-0.87,0.6-0.87h1.64c1.11,0,1.99,0,2.55,0.16c1.15,0.3,1.5,1.07,1.73,2.39l0.01,0.07
			l0.06,0.05c0.1,0.09,0.25,0.14,0.41,0.14C442.04,50.56,442.29,50.48,442.39,50.28L442.39,50.28z M424.36,55.51
			c0-4.54-2.98-9.42-9.53-9.42c-5.57,0-9.77,4.17-9.77,9.69c0,4.63,3.36,9.31,9.77,9.31C420.27,65.09,424.36,60.97,424.36,55.51
			L424.36,55.51z M421.26,56.34c0,5.54-3.28,7.5-6.08,7.5c-5.54,0-7.02-5.61-7.02-8.93c0-5.6,3.35-7.58,6.22-7.58
			C419.46,47.33,421.26,52.18,421.26,56.34L421.26,56.34z M397.64,102.25c0,11.6,8.64,21.85,22.95,21.85
			c12.44,0,22.37-9.48,22.37-22.5c0-11.34-7.48-22.11-22.37-22.11C407.31,79.49,397.64,89.36,397.64,102.25L397.64,102.25z
			 M404.09,100.19c0-14.12,8.7-18.69,15.41-18.69c12.31,0,17.02,11.47,17.02,22.11c0,12.7-7.35,18.5-15.08,18.5
			C408.73,122.11,404.09,109.73,404.09,100.19L404.09,100.19z M391.49,47.47c0.14-0.12,0.21-0.31,0.19-0.52
			c-0.02-0.21-0.12-0.39-0.27-0.48l-0.06-0.04l-0.06,0c-1.91,0.11-3.04,0.11-5.05,0l-0.05,0l-0.05,0.02
			c-0.15,0.08-0.25,0.23-0.28,0.41c-0.04,0.22,0.03,0.44,0.18,0.59l0.05,0.05l0.55,0.06c0.52,0.06,0.85,0.19,0.94,0.26
			c-0.08,0.38-1.02,2.13-1.59,3.19l-0.12,0.23c-0.65,1.25-1.39,2.6-2.34,4.22c-0.71-1.28-1.4-2.69-2.07-4.05
			c-0.26-0.53-0.52-1.07-0.79-1.59c-0.19-0.39-0.8-1.76-0.81-1.98c0-0.05,0.12-0.16,0.95-0.28l0.42-0.06l0.05-0.05
			c0.15-0.15,0.21-0.41,0.15-0.64c-0.04-0.18-0.16-0.32-0.32-0.37l-0.04-0.01l-0.04,0c-0.66,0.05-1.62,0.08-2.86,0.08
			c-1.24,0-2.23-0.03-3.1-0.08l-0.06,0l-0.05,0.03c-0.13,0.08-0.22,0.22-0.25,0.4c-0.04,0.22,0.02,0.44,0.15,0.59l0.05,0.06
			l0.82,0.15c0.71,0.12,1.07,0.18,1.97,1.93l3.17,6.18c0.76,1.46,0.84,1.76,0.84,3.24v1.37c0,2.92-0.07,3.06-1.42,3.21l-0.91,0.09
			l-0.05,0.05c-0.15,0.15-0.17,0.4-0.14,0.59c0.03,0.2,0.12,0.35,0.25,0.41l0.05,0.02l0.05,0c1.45-0.05,2.39-0.08,3.51-0.08
			c1.09,0,2.05,0.03,3.65,0.08l0.05,0l0.05-0.02c0.13-0.06,0.22-0.22,0.25-0.41c0.03-0.18,0.01-0.43-0.15-0.59l-0.05-0.05l-1.1-0.09
			c-1.24-0.09-1.42-0.3-1.42-3.21v-1.4c0-2.01,0.06-2.21,1.23-4.25l1.69-2.93c0.15-0.26,0.3-0.52,0.44-0.77
			c1.06-1.85,1.82-3.18,2.96-3.38l0.81-0.14L391.49,47.47L391.49,47.47z M381.08,80.34c-1.1-0.26-4.51-0.97-8.19-0.97
			c-9.74,0-16.12,3.03-20.43,7.54c-4,4.25-5.8,9.8-5.8,15.28c0,5.67,2.06,10.76,5.93,14.63c4.96,5.03,11.99,7.16,19.66,7.16
			c3.48,0,8.12-0.77,11.54-1.68c1.22-0.32,2.39-0.58,3.16-0.58c0.26-0.19,0.26-0.58,0.07-0.77c-1.16-0.45-1.55-2-1.55-4.58v-3.61
			c0-3.29,0.06-5.09,2.77-5.42l1.03-0.13c0.45-0.39,0.39-1.35-0.06-1.61c-2.13,0.13-4.32,0.19-6.83,0.19c-3.8,0-7.35-0.06-9.22-0.19
			c-0.45,0.19-0.52,1.35,0,1.61l2.84,0.32c4,0.45,4.19,0.84,4.19,6.25v2.58c0,2.06-0.32,3.22-0.64,3.67
			c-0.71,1.09-3.1,1.93-7.09,1.93c-12.96,0-19.34-9.74-19.34-22.11c0-9.67,5.48-18.57,17.99-18.57c6.58,0,11.41,2.19,13.21,9.15
			c0.39,0.39,1.55,0.32,1.74-0.19c-0.58-3.87-0.97-7.22-0.97-9.35C384.3,81.05,382.31,80.6,381.08,80.34L381.08,80.34z M371.09,46.1
			l0.02-0.07l-0.03-0.07c-0.1-0.2-0.38-0.22-0.49-0.22c-0.07,0-0.17,0.01-0.25,0.04l-0.07,0.03l-0.04,0.06
			c-0.34,0.6-0.49,0.65-1.92,0.65h-11.1c-1.2,0-1.74-0.06-1.85-0.66l-0.01-0.06l-0.05-0.05c-0.07-0.07-0.2-0.11-0.37-0.11
			c-0.06,0-0.28,0.01-0.4,0.08l-0.07,0.05l-0.02,0.09c-0.19,1.07-0.59,2.77-1.01,3.97l-0.03,0.08l0.04,0.08
			c0.16,0.32,0.71,0.48,1.01,0.26l0.04-0.03l0.02-0.05c0.27-0.62,0.53-1.21,1.16-1.78c0.59-0.54,1.93-0.62,3.17-0.62h1.48
			c0.6,0,0.6,0,0.6,0.65v12.01c0,2.91-0.17,3.04-1.48,3.15l-0.97,0.08l-0.09,0.03c-0.16,0.1-0.25,0.3-0.24,0.54
			c0.01,0.18,0.08,0.41,0.26,0.49l0.05,0.02l0.05,0c1.64-0.05,2.63-0.08,3.73-0.08c1.05,0,1.92,0.03,3.51,0.08l0.05,0l0.05-0.02
			c0.22-0.11,0.26-0.42,0.26-0.52c0.01-0.23-0.05-0.42-0.19-0.51l-0.96-0.11c-1.34-0.12-1.42-0.29-1.42-3.15V48.38
			c0-0.27,0-0.53,0.04-0.57c0.05-0.05,0.34-0.05,0.53-0.05H366c1.44,0,2.42,0.21,2.99,0.63c0.25,0.19,0.47,0.87,0.59,1.82l0.01,0.06
			l0.04,0.05c0.1,0.12,0.28,0.19,0.49,0.19c0.25,0,0.47-0.11,0.56-0.29l0.03-0.05l-0.01-0.06C370.62,49.34,370.8,47.18,371.09,46.1
			L371.09,46.1z M346.6,60.37v-9.56c0-2.94,0.08-3.12,1.45-3.23l0.73-0.06l0.04-0.03c0.13-0.09,0.2-0.28,0.19-0.51
			c-0.01-0.09-0.04-0.41-0.26-0.52l-0.05-0.02l-0.05,0c-1.27,0.05-2.22,0.08-3.32,0.08c-1.15,0-2.08-0.03-3.38-0.08l-0.05,0
			l-0.05,0.02c-0.22,0.11-0.26,0.43-0.26,0.52c-0.01,0.23,0.05,0.42,0.19,0.51l0.04,0.03l0.72,0.06c1.37,0.12,1.45,0.3,1.45,3.23
			v9.56c0,2.89-0.07,3.04-1.46,3.21l-0.74,0.09l-0.05,0.05c-0.15,0.15-0.18,0.4-0.15,0.59c0.03,0.2,0.12,0.35,0.25,0.41l0.05,0.02
			l0.05,0c1.37-0.05,2.27-0.08,3.38-0.08c1.07,0,1.96,0.03,3.32,0.08l0.05,0l0.05-0.02c0.22-0.11,0.26-0.43,0.26-0.52
			c0.01-0.23-0.05-0.42-0.19-0.51l-0.76-0.11C346.67,63.41,346.6,63.26,346.6,60.37L346.6,60.37z M341.18,121.34
			c-2.77-0.32-3.61-1.29-5.48-6.83l-8.83-25.91c-0.97-2.84-2-5.8-2.84-8.64c-0.13-0.45-0.58-0.58-0.97-0.58
			c-0.71,0.84-1.8,2-3.35,2.45c0.19,1.03-0.19,2.25-1.1,4.58l-6.57,17.41c-2.71,7.22-4.51,11.41-5.67,14.38
			c-0.9,2.32-2.32,3.03-3.87,3.16l-2.13,0.19c-0.39,0.32-0.26,1.35,0.13,1.61c1.74-0.06,4.06-0.19,6.19-0.19
			c3.03,0.06,5.03,0.06,6.71,0.19c0.58-0.26,0.58-1.29,0.13-1.61l-2.13-0.19c-1.55-0.13-1.87-0.52-1.87-1.29
			c0-0.71,0.45-2.45,1.42-5.35l2.26-6.77c0.45-1.35,0.84-1.55,2.45-1.55h9.73c1.93,0,2.19,0.19,2.64,1.61l2.83,8.77
			c0.52,1.55,0.84,2.71,0.84,3.42c0,0.65-0.9,1.03-2.25,1.16l-1.87,0.19c-0.45,0.32-0.39,1.35,0.13,1.61
			c1.87-0.06,4.32-0.19,7.41-0.19c2.9,0,5.16,0.06,7.8,0.19c0.32-0.26,0.45-1.29,0-1.61L341.18,121.34L341.18,121.34z
			 M324.55,103.81h-7.93c-1.81,0-1.87-0.06-1.35-1.55l4.06-11.22c0.71-1.93,1.35-3.48,1.55-3.8H321c0.39,0.77,0.97,2.52,1.48,4.06
			l3.48,10.51C326.54,103.55,326.41,103.81,324.55,103.81L324.55,103.81z M328.18,50.11c0-1.04,0.39-2.78,2.99-2.78
			c2.37,0,3.09,1.54,3.46,2.88l0.04,0.08c0.09,0.1,0.23,0.16,0.41,0.16c0.2,0,0.48-0.08,0.59-0.26l0.03-0.05v-0.06
			c0-1.1-0.23-2.63-0.49-3.35l-0.05-0.13h-0.14c-0.19,0-0.55-0.05-0.89-0.15c-0.64-0.17-1.65-0.36-2.55-0.36
			c-3.4,0-5.69,1.94-5.69,4.83c0,2.45,1.87,4.06,2.99,4.79l2.55,1.67c1.85,1.19,2.11,2.43,2.11,3.59c0,1.43-0.97,2.88-3.15,2.88
			c-2.72,0-3.91-2.1-4.42-3.85l-0.03-0.06c-0.08-0.12-0.23-0.19-0.41-0.19c-0.18,0-0.44,0.07-0.57,0.26l-0.04,0.06l0,0.07
			c0.05,1.21,0.4,3.2,0.75,3.85l0.03,0.05l0.05,0.03c0.53,0.31,2,1.02,4.29,1.02c3.54,0,5.93-2.08,5.93-5.18
			c0-2.15-1.13-3.89-3.45-5.33l-2.15-1.34C329.55,52.73,328.18,51.65,328.18,50.11L328.18,50.11z M321.41,64.77
			c0.12-0.1,0.19-0.26,0.16-0.41c-0.02-0.15-0.11-0.26-0.24-0.32l-0.06-0.01c-0.64-0.05-1.29-0.31-1.74-0.7
			c-1.85-1.55-3.32-3.82-5.36-7.1c-0.14-0.23-0.16-0.33-0.16-0.37c0.89-0.37,3.41-1.69,3.41-4.65c0-2.25-1.27-3.39-2.34-3.94
			c-1.35-0.73-3.07-0.83-4.58-0.83c-2.46,0-4.37,0.07-6.01,0.21l-0.07,0.02c-0.16,0.08-0.26,0.25-0.28,0.46
			c-0.02,0.23,0.07,0.45,0.22,0.56l0.04,0.03l0.91,0.11c0.88,0.11,1,0.3,1,2.94v9.65c0,2.84-0.07,2.99-1.43,3.15l-0.75,0.09
			l-0.05,0.06c-0.15,0.18-0.17,0.43-0.13,0.61c0.04,0.18,0.12,0.31,0.25,0.38l0.05,0.02l0.05,0c1.19-0.05,2.17-0.08,3.35-0.08
			c1.11,0,2.04,0.03,3.19,0.08l0.05,0l0.05-0.02c0.2-0.1,0.25-0.36,0.26-0.46c0.03-0.24-0.04-0.44-0.17-0.55L311,63.66l-0.62-0.09
			c-1.38-0.19-1.43-0.31-1.43-3.15v-3.39c0-0.38,0-0.38,1.06-0.38c1.03,0,1.38,0.25,1.74,0.77c0.41,0.59,0.88,1.34,1.34,2.07
			c0.48,0.76,0.93,1.48,1.29,1.98c1.84,2.63,3.24,3.47,5.73,3.47c0.52,0,0.97-0.05,1.25-0.14L321.41,64.77L321.41,64.77z
			 M313.31,54.78c-0.77,0.58-1.81,0.66-2.64,0.66c-1.21,0-1.59-0.05-1.7-0.08c-0.03-0.11-0.03-0.43-0.03-0.74v-6.29
			c0-0.6,0-0.65,1.54-0.65c3.02,0,4.09,2.12,4.09,3.93C314.58,53.1,314.17,54.11,313.31,54.78L313.31,54.78z M299.43,60.84
			l0.01-0.06l-0.03-0.06c-0.12-0.26-0.4-0.37-0.63-0.37c-0.13,0-0.25,0.04-0.35,0.1l-0.06,0.08c-0.77,1.54-1.46,2.32-1.82,2.51
			c-0.58,0.29-1.39,0.38-3.35,0.38c-2.24,0-2.81-0.27-3.1-0.55c-0.38-0.4-0.46-1.28-0.46-2.65v-3.79c0-0.52,0-0.52,0.68-0.52h1.56
			c0.94,0,1.64,0.02,2.02,0.13c0.37,0.09,0.56,0.34,0.68,0.87l0.24,1.05l0.04,0.09c0.1,0.12,0.29,0.19,0.5,0.19
			c0.25,0,0.45-0.09,0.53-0.25l0.03-0.05v-0.06c0-0.26-0.02-0.61-0.04-1c-0.03-0.49-0.06-1.04-0.06-1.58c0-0.56,0.03-1.14,0.06-1.64
			c0.02-0.41,0.04-0.78,0.04-1.07v-0.05l-0.03-0.05c-0.09-0.16-0.29-0.25-0.54-0.25c-0.21,0-0.4,0.07-0.5,0.19l-0.26,1.19
			c-0.12,0.61-0.27,0.71-0.51,0.78c-0.29,0.1-1.1,0.15-2.22,0.15h-1.56c-0.68,0-0.68,0-0.68-0.55v-5.37c0-0.87,0-0.87,0.6-0.87h1.93
			c1.14,0,2.01,0.03,2.56,0.16c1.22,0.31,1.47,1.08,1.84,2.25l0.05,0.16l0.04,0.07c0.09,0.11,0.25,0.17,0.44,0.17
			c0.18,0,0.44-0.06,0.56-0.24l0.04-0.06l-0.04-0.39c-0.14-1.56-0.27-2.89-0.41-3.3l-0.06-0.18l-0.18,0.04
			c-0.3,0.07-1.96,0.07-3.58,0.07h-5.05c-1.04,0-1.92-0.02-3.16-0.08l-0.05,0l-0.05,0.02c-0.22,0.11-0.26,0.42-0.27,0.52
			c-0.02,0.24,0.05,0.42,0.19,0.51l0.52,0.09c1.38,0.16,1.46,0.34,1.46,3.18v9.67c0,2.91-0.17,3.04-1.48,3.15l-0.96,0.09l-0.05,0.05
			c-0.15,0.15-0.18,0.4-0.15,0.58c0.03,0.2,0.12,0.35,0.25,0.42l0.05,0.02l0.05,0c1.55-0.05,2.49-0.08,3.65-0.08h2.42
			c2.34,0,4.7,0.03,7.2,0.08l0.13,0l0.06-0.12C298.57,63.87,299.24,61.78,299.43,60.84L299.43,60.84z M281.01,47.46
			c0.15-0.15,0.17-0.4,0.15-0.58c-0.03-0.2-0.11-0.34-0.24-0.42l-0.05-0.03l-0.06,0c-0.9,0.05-1.72,0.08-2.59,0.08
			c-1.06,0-2.07-0.03-2.78-0.08l-0.06,0l-0.05,0.03c-0.15,0.09-0.25,0.26-0.27,0.48c-0.02,0.21,0.05,0.41,0.18,0.53l0.05,0.04
			l0.54,0.06c0.94,0.11,1.03,0.3,1.03,0.3c0,0.18-0.03,0.44-0.23,0.97c-0.46,1.17-1.74,4.25-2.5,6.01c-0.2,0.46-0.45,1.05-0.73,1.71
			c-0.51,1.21-1.13,2.68-1.66,3.83c-1.27-2.92-2.44-5.85-3.63-8.84c-0.79-1.93-1.24-3.33-1.32-3.68c0.04-0.08,0.27-0.2,1.08-0.31
			l0.46-0.06l0.05-0.04c0.14-0.12,0.21-0.32,0.19-0.53c-0.02-0.21-0.12-0.39-0.27-0.48l-0.05-0.03l-0.06,0
			c-1.19,0.06-2.13,0.08-3.24,0.08c-1.12,0-1.98-0.02-2.78-0.08l-0.07,0l-0.06,0.04c-0.16,0.1-0.26,0.28-0.27,0.48
			c-0.02,0.21,0.06,0.4,0.19,0.52l0.05,0.04l0.55,0.06c1.04,0.12,1.4,0.6,2.01,2.08l4.73,11.66c0.56,1.4,0.98,2.59,1.23,3.55
			l0.03,0.1l0.1,0.04c0.16,0.06,0.32,0.1,0.48,0.1c0.15,0,0.3-0.04,0.41-0.11l0.06-0.04l0.02-0.07c0.46-1.44,1.75-4.61,2.79-6.99
			l1.45-3.3c1.25-2.82,2.28-4.95,3-6.15c0.34-0.55,0.7-0.8,1.23-0.84l0.88-0.06L281.01,47.46L281.01,47.46z M263.47,84.85
			c-4.9,3.8-8.12,9.93-8.12,17.08c0,8.32,4,14.18,9.15,17.73c4.71,3.16,10.25,4.32,16.05,4.32c4.13,0,8.77-0.97,10.19-1.48
			c0.71-0.26,1.48-0.51,2.26-0.64c0.97-1.22,2.64-5.48,3.09-8.83c-0.26-0.45-1.23-0.58-1.67-0.26c-1.48,3.8-5.16,9.22-13.47,9.22
			c-10.57,0-19.15-7.48-19.15-21.02c0-13.34,8.38-19.6,18.24-19.6c9.35,0,12.25,5.03,13.22,9.41c0.45,0.39,1.42,0.32,1.74-0.13
			c-0.51-3.93-0.84-7.99-0.9-9.48c-0.58,0.07-1.03-0.06-1.8-0.26c-3.03-0.84-7.93-1.55-11.41-1.55
			C274.17,79.37,268.17,81.18,263.47,84.85L263.47,84.85z M255.22,60.37v-9.56c0-2.91,0.09-3.12,1.45-3.23l0.72-0.06l0.04-0.03
			c0.13-0.09,0.2-0.28,0.19-0.51c-0.01-0.09-0.04-0.41-0.26-0.52l-0.05-0.02l-0.05,0c-1.27,0.05-2.22,0.08-3.32,0.08
			c-1.15,0-2.08-0.03-3.38-0.08l-0.05,0l-0.05,0.02c-0.22,0.11-0.26,0.42-0.27,0.52c-0.01,0.23,0.05,0.42,0.19,0.51l0.04,0.03
			l0.72,0.06c1.36,0.12,1.45,0.33,1.45,3.23v9.56c0,2.89-0.07,3.04-1.46,3.21l-0.74,0.09l-0.05,0.05c-0.15,0.15-0.18,0.4-0.15,0.59
			c0.03,0.2,0.12,0.35,0.25,0.41l0.05,0.02l0.05,0c1.36-0.05,2.26-0.08,3.38-0.08c1.06,0,1.99,0.03,3.32,0.08l0.05,0l0.05-0.02
			c0.22-0.11,0.26-0.43,0.27-0.52c0.01-0.23-0.05-0.42-0.19-0.51l-0.76-0.11C255.29,63.41,255.22,63.26,255.22,60.37L255.22,60.37z
			 M241.74,113.15V90.21c0-6.83,0.13-7.93,3.93-8.25l1.61-0.13c0.39-0.26,0.26-1.42-0.13-1.61c-3.22,0.13-5.41,0.19-7.99,0.19
			c-2.71,0-4.9-0.07-8.12-0.19c-0.39,0.19-0.52,1.35-0.13,1.61l1.61,0.13c3.8,0.32,3.93,1.42,3.93,8.25v22.95
			c0,6.83-0.13,7.74-3.93,8.19l-1.61,0.19c-0.39,0.39-0.26,1.42,0.13,1.61c3.22-0.13,5.42-0.19,8.12-0.19
			c2.58,0,4.77,0.06,7.99,0.19c0.39-0.19,0.52-1.35,0.13-1.61l-1.61-0.19C241.87,120.89,241.74,119.99,241.74,113.15L241.74,113.15z
			 M245.07,47.46c0.13-0.13,0.19-0.34,0.17-0.55c-0.02-0.19-0.12-0.35-0.26-0.44l-0.06-0.04l-0.07,0c-0.88,0.05-1.58,0.08-2.75,0.08
			c-0.95,0-1.83-0.02-3.16-0.08l-0.04,0l-0.04,0.01c-0.16,0.06-0.27,0.2-0.3,0.4c-0.04,0.24,0.03,0.48,0.18,0.62l0.05,0.04
			l0.52,0.06c0.92,0.12,1.39,0.25,1.52,0.44c0.32,0.51,0.51,2.49,0.51,5.45v5.75c0,0.26,0,0.56-0.02,0.77
			c-0.93-0.96-1.91-2.05-3.12-3.41l-3.74-4.19c-2.66-2.98-4.18-4.94-4.52-5.81l-0.06-0.15l-0.16,0.02
			c-0.32,0.05-0.76,0.08-1.21,0.08c-0.47,0-1.9,0-3.02-0.08l-0.06,0l-0.05,0.03c-0.14,0.07-0.24,0.22-0.27,0.4
			c-0.04,0.22,0.03,0.46,0.16,0.6l0.05,0.05l0.53,0.06c0.72,0.09,1.25,0.29,1.54,0.58c0.5,0.55,0.54,1.04,0.54,1.79v8.01
			c0,1.3,0,4.34-0.33,5.21c-0.06,0.14-0.29,0.32-1.02,0.42l-0.8,0.09l-0.05,0.05c-0.12,0.12-0.18,0.31-0.16,0.51
			c0.02,0.2,0.11,0.37,0.24,0.47l0.06,0.04l0.07,0c0.93-0.05,1.65-0.08,2.78-0.08c0.91,0,1.82,0.02,3.13,0.08l0.07,0l0.06-0.04
			c0.13-0.09,0.21-0.23,0.24-0.4c0.03-0.2-0.02-0.4-0.14-0.56l-0.05-0.07l-0.93-0.09c-0.64-0.05-1.09-0.2-1.21-0.41
			c-0.29-0.51-0.46-2.5-0.46-5.46v-5.86c0-0.48,0.01-0.99,0.06-1.36c0.43,0.48,1.14,1.32,1.78,2.07c0.44,0.52,0.84,1,1.11,1.3
			l6.23,7.09c2.07,2.36,3.06,3.53,3.42,4.04l0.06,0.09h0.11c0.35,0,0.62-0.16,0.71-0.44l0.01-0.04l-0.01-0.04
			c-0.04-0.31-0.08-1.38-0.08-4.68l0-6.78c0-1.38-0.01-4.24,0.38-5.08c0.03-0.07,0.36-0.3,1.35-0.45l0.44-0.06L245.07,47.46
			L245.07,47.46z M220.99,47.42c0.12-0.14,0.18-0.37,0.14-0.56c-0.03-0.17-0.11-0.3-0.25-0.39l-0.06-0.03l-0.07,0
			c-0.93,0.05-1.66,0.08-2.81,0.08c-1.03,0-2.03-0.03-3.05-0.08l-0.07,0l-0.06,0.04c-0.12,0.08-0.21,0.24-0.24,0.42
			c-0.03,0.2,0.02,0.4,0.14,0.53l0.06,0.07l0.76,0.06c0.62,0.05,1.04,0.22,1.18,0.46c0.31,0.55,0.49,2.49,0.49,5.46v3.09
			c0,3.17-0.9,6.94-5.17,6.94c-3.58,0-5.25-2.21-5.25-6.97v-5.8c0-2.86,0.09-3.06,1.42-3.18l0.7-0.06l0.04-0.03
			c0.13-0.09,0.2-0.27,0.19-0.5c-0.01-0.19-0.09-0.42-0.26-0.51l-0.05-0.02l-0.05,0c-1.27,0.05-2.18,0.08-3.29,0.08
			c-1.1,0-2.05-0.03-3.32-0.08l-0.05,0l-0.05,0.02c-0.18,0.09-0.25,0.32-0.27,0.5c-0.02,0.23,0.05,0.41,0.19,0.5l0.05,0.03
			l0.72,0.06c1.33,0.12,1.42,0.32,1.42,3.18v6.34c0,3.25,0.67,5.25,2.17,6.5c1.18,1.01,2.92,1.53,5.16,1.53
			c2.12,0,4.14-0.78,5.28-2.03c1.3-1.4,1.94-3.54,1.94-6.56v-3.04c0-1.36,0-4.55,0.36-5.39c0.12-0.27,0.58-0.48,1.17-0.53l0.73-0.06
			L220.99,47.42L220.99,47.42z M190.11,81.83c0.39-0.26,0.26-1.42-0.13-1.61c-2.77,0.13-4.96,0.19-7.48,0.19
			c-2.77,0-4.96-0.13-8.12-0.19c-0.39,0.19-0.52,1.35-0.13,1.61l1.68,0.13c3.35,0.26,3.8,1.35,3.8,8.12v23.21
			c0,6.77-0.13,7.41-3.74,8.06l-1.09,0.19c-0.39,0.39-0.26,1.42,0.13,1.61c2.51-0.06,4.71-0.19,7.48-0.19
			c2.51,0,4.71,0.06,8.19,0.19c0.39-0.19,0.52-1.35,0.13-1.61l-1.87-0.19c-3.61-0.39-3.93-1.29-3.93-8.06v-9.09
			c0-1.93,0.13-2.06,3.22-2.06h18.44c3.09,0,3.22,0.13,3.22,2.06v9.09c0,6.77,0,7.41-3.93,8.06l-1.22,0.19
			c-0.39,0.39-0.26,1.42,0.13,1.61c2.84-0.13,5.16-0.19,7.8-0.19c2.51,0,4.71,0.06,7.8,0.19c0.39-0.19,0.52-1.35,0.13-1.61
			l-1.55-0.19c-3.74-0.45-3.87-1.29-3.87-8.06V90.08c0-6.77,0.13-7.74,3.87-8.12l1.35-0.13c0.39-0.26,0.26-1.42-0.13-1.61
			c-2.9,0.13-5.09,0.19-7.61,0.19c-2.64,0-4.83-0.07-7.8-0.19c-0.39,0.19-0.52,1.35-0.13,1.61l1.22,0.13
			c3.8,0.39,3.93,1.35,3.93,8.12v7.41c0,2-0.13,2.06-3.22,2.06h-18.44c-3.09,0-3.22-0.06-3.22-2.06v-7.41
			c0-6.77,0.13-7.74,3.87-8.12L190.11,81.83L190.11,81.83z M187.51,60.84l0.01-0.06l-0.03-0.06c-0.12-0.26-0.4-0.37-0.63-0.37
			c-0.13,0-0.25,0.04-0.35,0.1l-0.07,0.08c-0.77,1.54-1.46,2.32-1.81,2.51c-0.58,0.29-1.39,0.38-3.35,0.38
			c-2.24,0-2.81-0.27-3.1-0.55c-0.38-0.41-0.46-1.28-0.46-2.65v-3.79c0-0.52,0-0.52,0.68-0.52h1.56c0.94,0,1.64,0.02,2.02,0.13
			c0.37,0.09,0.57,0.34,0.68,0.87l0.24,1.05l0.04,0.09c0.1,0.12,0.29,0.19,0.5,0.19c0.25,0,0.44-0.09,0.53-0.25l0.03-0.05v-0.06
			c0-0.26-0.02-0.61-0.04-1c-0.03-0.49-0.06-1.04-0.06-1.58c0-0.56,0.03-1.14,0.06-1.64c0.02-0.41,0.05-0.78,0.05-1.07v-0.05
			l-0.03-0.05c-0.09-0.16-0.29-0.25-0.54-0.25c-0.21,0-0.4,0.07-0.5,0.19l-0.26,1.19c-0.12,0.61-0.27,0.71-0.51,0.78
			c-0.29,0.1-1.09,0.15-2.22,0.15h-1.56c-0.68,0-0.68,0-0.68-0.55v-5.37c0-0.87,0-0.87,0.6-0.87h1.93c1.14,0,2.01,0.03,2.56,0.16
			c1.23,0.31,1.47,1.08,1.84,2.25l0.05,0.16l0.04,0.07c0.09,0.11,0.25,0.17,0.44,0.17c0.19,0,0.44-0.06,0.56-0.24l0.04-0.06
			l-0.04-0.4c-0.14-1.56-0.27-2.89-0.41-3.3l-0.06-0.18l-0.18,0.04c-0.3,0.07-1.96,0.07-3.58,0.07h-5.05
			c-1.03,0-1.92-0.02-3.16-0.08l-0.05,0l-0.05,0.02c-0.22,0.11-0.26,0.42-0.26,0.52c-0.02,0.24,0.05,0.42,0.19,0.51l0.52,0.09
			c1.38,0.16,1.46,0.34,1.46,3.18v9.67c0,2.91-0.17,3.04-1.48,3.15l-0.96,0.09l-0.05,0.05c-0.15,0.15-0.18,0.4-0.15,0.59
			c0.03,0.2,0.12,0.35,0.25,0.41l0.05,0.02l0.05,0c1.55-0.05,2.49-0.08,3.65-0.08h2.42c2.34,0,4.7,0.03,7.19,0.08l0.13,0l0.06-0.12
			C186.64,63.87,187.32,61.79,187.51,60.84L187.51,60.84z M165.06,60.42v-9.67c0-2.86,0.08-3.04,1.42-3.18l0.56-0.05l0.09-0.03
			c0.13-0.09,0.2-0.27,0.19-0.51c-0.01-0.09-0.04-0.41-0.26-0.52l-0.05-0.02l-0.05,0c-1.3,0.06-2.19,0.08-3.16,0.08
			c-1.16,0-2.1-0.03-3.24-0.08l-0.05,0l-0.05,0.02c-0.22,0.11-0.26,0.42-0.26,0.52c-0.02,0.23,0.05,0.42,0.19,0.51l0.6,0.09
			c1.37,0.14,1.45,0.32,1.45,3.18v3.09c0,0.65,0,0.65-1.14,0.65h-7.68c-1.14,0-1.14,0-1.14-0.65v-3.09c0-2.86,0.08-3.04,1.43-3.18
			l0.51-0.05l0.09-0.03c0.13-0.09,0.2-0.28,0.19-0.51c-0.01-0.09-0.04-0.41-0.27-0.52l-0.05-0.02l-0.05,0
			c-1.22,0.06-2.12,0.08-3.11,0.08c-0.7,0-1.31-0.02-1.98-0.04c-0.43-0.01-0.88-0.03-1.4-0.04l-0.05,0l-0.04,0.02
			c-0.22,0.11-0.26,0.42-0.27,0.52c-0.02,0.24,0.05,0.42,0.19,0.51l0.05,0.03l0.75,0.06c1.18,0.09,1.39,0.33,1.39,3.18v9.67
			c0,2.8-0.05,2.91-1.39,3.15l-0.52,0.09l-0.05,0.05c-0.15,0.15-0.18,0.4-0.15,0.59c0.03,0.2,0.12,0.35,0.25,0.41l0.05,0.02l0.05,0
			c0.37-0.01,0.72-0.02,1.07-0.03c0.64-0.02,1.29-0.05,2.04-0.05c1.01,0,1.87,0.02,3.41,0.08l0.05,0l0.05-0.02
			c0.18-0.09,0.25-0.33,0.26-0.52c0.01-0.23-0.06-0.42-0.19-0.5l-0.87-0.11c-1.29-0.14-1.45-0.27-1.45-3.15v-3.79
			c0-0.65,0-0.65,1.14-0.65h7.68c1.14,0,1.14,0,1.14,0.65v3.79c0,2.86-0.03,2.92-1.46,3.15l-0.58,0.09l-0.05,0.05
			c-0.15,0.15-0.18,0.4-0.15,0.59c0.03,0.2,0.13,0.35,0.25,0.41l0.05,0.02l0.05,0c1.29-0.06,2.22-0.08,3.24-0.08
			c1.06,0,1.99,0.03,3.24,0.08l0.05,0l0.05-0.02c0.22-0.11,0.26-0.42,0.27-0.52c0.02-0.23-0.05-0.42-0.19-0.51l-0.73-0.11
			C165.12,63.41,165.06,63.26,165.06,60.42L165.06,60.42z M142.97,46.1l0.02-0.08l-0.04-0.07c-0.1-0.2-0.4-0.22-0.49-0.22
			c-0.07,0-0.17,0.01-0.25,0.04l-0.07,0.03l-0.04,0.06c-0.35,0.6-0.49,0.65-1.92,0.65h-11.1c-1.2,0-1.74-0.06-1.85-0.66l-0.01-0.06
			l-0.05-0.05c-0.07-0.07-0.2-0.11-0.37-0.11c-0.06,0-0.28,0.01-0.4,0.09l-0.07,0.05l-0.02,0.09c-0.19,1.07-0.59,2.77-1.01,3.97
			l-0.03,0.08l0.04,0.08c0.16,0.32,0.71,0.48,1.01,0.26l0.04-0.03l0.02-0.05c0.27-0.62,0.53-1.21,1.16-1.78
			c0.59-0.54,1.93-0.62,3.16-0.62h1.48c0.6,0,0.6,0,0.6,0.65v12.01c0,2.91-0.17,3.04-1.48,3.15l-0.97,0.08l-0.09,0.03
			c-0.16,0.1-0.25,0.3-0.24,0.54c0.01,0.18,0.08,0.41,0.25,0.49l0.05,0.02l0.05,0c1.64-0.05,2.64-0.08,3.73-0.08
			c1.05,0,1.92,0.03,3.51,0.08l0.05,0l0.05-0.02c0.18-0.09,0.25-0.33,0.26-0.52c0.01-0.23-0.05-0.42-0.19-0.5l-0.96-0.11
			c-1.34-0.12-1.42-0.29-1.42-3.15V48.39c0-0.27,0-0.53,0.04-0.58c0.05-0.05,0.34-0.05,0.53-0.05h1.91c1.44,0,2.42,0.21,2.99,0.63
			c0.25,0.19,0.47,0.87,0.59,1.82l0.01,0.06l0.04,0.05c0.1,0.12,0.28,0.19,0.49,0.19c0.25,0,0.47-0.11,0.55-0.29l0.03-0.05
			l-0.01-0.06C142.5,49.34,142.68,47.18,142.97,46.1L142.97,46.1z M124.68,101.94c0,8.32,4,14.18,9.15,17.73
			c4.71,3.16,10.25,4.32,16.05,4.32c4.13,0,8.77-0.97,10.18-1.48c0.71-0.26,1.48-0.51,2.26-0.64c0.97-1.22,2.64-5.48,3.09-8.83
			c-0.26-0.45-1.22-0.58-1.68-0.26c-1.48,3.8-5.16,9.22-13.47,9.22c-10.57,0-19.15-7.48-19.15-21.02c0-13.34,8.38-19.6,18.24-19.6
			c9.35,0,12.25,5.03,13.22,9.41c0.45,0.39,1.42,0.32,1.74-0.13c-0.52-3.93-0.84-7.99-0.9-9.48c-0.58,0.07-1.03-0.06-1.8-0.26
			c-3.03-0.84-7.93-1.55-11.41-1.55c-6.7,0-12.7,1.8-17.41,5.48C127.9,88.66,124.68,94.78,124.68,101.94L124.68,101.94z"/>
	</g>
</g>
<g id="TM" class="st0">
	<g class="st1">
		<path class="st5" d="M449.05,116.2h-2.67v-1.37h6.82v1.37h-2.67v7.04h-1.49V116.2z"/>
		<path class="st5" d="M454.77,114.83h1.57l2.56,3.98l2.56-3.98h1.57v8.41h-1.48v-6.03l-2.65,3.96h-0.05l-2.63-3.94v6.01h-1.45
			V114.83z"/>
	</g>
</g>
</svg>
